<?xml version="1.0" standalone="no"?>
<!DOCTYPE svg PUBLIC "-//W3C//DTD SVG 20010904//EN"
 "http://www.w3.org/TR/2001/REC-SVG-20010904/DTD/svg10.dtd">
<svg version="1.0" xmlns="http://www.w3.org/2000/svg"
 width="925.000000pt" height="593.000000pt" viewBox="0 0 925.000000 593.000000"
 preserveAspectRatio="xMidYMid meet">
<metadata>
Created by potrace 1.16, written by Peter Selinger 2001-2019
</metadata>
<g transform="translate(0.000000,593.000000) scale(0.100000,-0.100000)"
fill="#000000" stroke="none">
<path d="M4085 5904 c-22 -3 -101 -13 -175 -24 -74 -10 -149 -16 -165 -13 -55
9 -450 -102 -515 -145 -14 -9 -68 -35 -120 -58 -378 -164 -735 -434 -1017
-769 -325 -386 -543 -888 -624 -1440 -10 -71 -19 -135 -19 -141 0 -6 -29 -34
-64 -62 -72 -59 -74 -64 -87 -202 -11 -128 -26 -245 -33 -268 -5 -16 -19 -158
-30 -316 -2 -27 -8 -51 -12 -55 -5 -3 -10 -24 -11 -45 -2 -22 -8 -43 -14 -47
-6 -4 -8 -12 -4 -19 4 -6 2 -22 -5 -35 -11 -20 -3 -42 74 -199 48 -97 111
-211 140 -254 29 -43 56 -87 60 -98 15 -36 34 -149 30 -174 -3 -14 -1 -43 3
-65 l9 -40 32 44 c18 24 32 53 32 63 0 18 63 90 86 99 31 12 99 132 110 193 3
17 9 33 14 36 19 12 29 93 18 149 -12 67 -50 171 -55 154 -7 -21 -60 -15 -83
9 -25 27 -25 59 0 134 17 48 20 81 19 177 -1 65 -6 120 -11 123 -5 4 -7 18 -3
33 5 21 4 24 -6 14 -18 -18 -53 -17 -46 0 3 8 11 49 18 93 7 43 18 82 23 86 7
4 6 23 -2 55 -17 72 -19 129 -3 125 7 -1 9 2 6 9 -4 6 -16 9 -26 6 -12 -3 -19
0 -19 9 0 8 6 11 15 8 8 -4 15 -1 15 5 0 6 -7 11 -16 11 -9 0 -14 6 -11 13 2
6 -3 17 -11 23 -23 17 -6 57 21 50 22 -5 22 -5 2 10 -14 10 -21 28 -22 55 -1
35 1 39 15 27 12 -10 11 -6 -3 15 -16 24 -16 30 -4 38 8 5 20 9 26 9 19 0 28
49 12 63 -8 7 -11 8 -7 3 9 -11 -19 -66 -33 -66 -6 0 -6 6 -1 18 5 9 7 23 4
31 -3 8 0 11 7 7 6 -4 11 -1 11 8 0 9 -6 16 -12 16 -9 0 -8 4 2 10 10 6 11 10
3 10 -18 0 -16 27 3 34 8 3 13 10 9 15 -8 14 9 21 25 11 11 -7 11 -13 -4 -34
-9 -15 -12 -26 -6 -26 18 0 40 27 40 49 0 11 5 23 10 26 14 9 13 48 -2 63 -7
7 -21 12 -32 13 -12 0 -15 3 -8 6 6 2 12 13 12 23 0 10 5 22 10 25 8 5 7 12
-2 23 -10 12 -10 14 0 8 7 -4 12 -1 12 8 0 9 8 16 17 16 15 0 14 2 -3 16 -18
15 -18 15 3 9 16 -4 26 0 35 14 7 12 19 21 26 21 18 0 57 38 48 47 -4 4 -12 0
-17 -8 -5 -9 -21 -20 -36 -24 -63 -18 -79 -10 -47 23 15 14 17 14 25 -1 10
-17 39 -13 39 7 0 12 45 36 67 36 21 0 15 38 -7 45 -11 3 -20 13 -20 21 0 8
-5 14 -11 14 -8 0 -8 4 1 15 6 8 9 19 5 25 -3 5 1 13 9 16 9 3 16 13 16 22 0
13 2 14 13 3 9 -11 9 -14 0 -18 -7 -3 -13 -14 -13 -24 0 -33 19 -11 26 29 4
20 11 43 17 50 7 8 5 12 -8 12 -9 0 -15 6 -13 12 5 15 40 17 50 3 5 -6 14 -3
25 8 16 16 16 17 0 17 -9 0 -17 4 -17 8 0 5 -10 8 -22 8 -14 -1 -23 5 -23 14
0 8 8 14 18 14 9 -1 17 4 17 12 0 17 22 18 37 3 8 -8 13 -8 17 0 4 6 2 11 -3
11 -6 0 -11 5 -11 10 0 6 11 10 24 10 13 0 26 7 29 14 4 10 1 13 -9 9 -10 -4
-12 0 -8 11 3 9 14 15 23 14 10 -2 15 3 15 15 -1 9 3 17 8 17 5 0 8 6 6 12 -3
7 2 19 9 26 8 8 11 23 8 33 -8 24 3 42 18 32 7 -4 20 -9 30 -10 14 -2 17 1 12
17 -4 12 -2 20 5 20 6 0 8 -4 5 -10 -11 -17 7 -11 21 8 8 10 13 12 14 5 0 -15
30 -18 30 -3 0 6 7 10 15 10 7 0 19 8 24 18 10 16 10 15 11 -3 1 -11 4 -14 7
-7 6 15 33 16 33 1 0 -6 7 -8 16 -5 18 7 74 -20 74 -36 0 -6 -3 -8 -7 -5 -3 4
-11 -1 -18 -10 -10 -13 -17 -14 -44 -5 -17 6 -38 9 -46 6 -17 -7 -21 -64 -4
-64 6 0 9 12 7 27 -2 16 2 28 11 31 10 3 12 0 7 -13 -4 -13 -2 -16 9 -11 18 7
20 -5 3 -23 -11 -10 -8 -11 15 -6 16 4 27 3 27 -3 0 -5 8 -12 19 -15 18 -4 18
-3 2 24 -16 28 -15 30 13 52 25 20 27 26 18 44 -10 17 -8 22 6 28 15 7 15 8
-3 15 -18 8 -17 9 7 9 15 1 30 6 33 11 5 8 11 7 21 -1 9 -7 14 -8 14 -1 0 6
-5 12 -12 14 -7 3 -9 12 -4 24 7 17 9 17 19 3 14 -18 57 -20 57 -2 0 7 -6 13
-12 13 -7 0 -1 8 14 17 33 21 44 43 18 36 -14 -4 -20 3 -25 28 -5 22 -4 34 4
37 6 2 8 8 5 14 -4 6 -1 8 7 6 8 -3 13 -10 12 -16 -2 -8 5 -9 21 -2 13 5 27 6
30 3 3 -4 6 3 6 15 0 23 -14 29 -25 12 -3 -5 -11 -10 -17 -10 -7 0 -6 6 2 15
7 8 23 15 36 15 17 0 22 -4 18 -15 -7 -18 12 -20 19 -2 4 9 8 8 16 -3 12 -17
8 -36 -7 -33 -6 2 -1 -16 11 -40 27 -53 26 -51 33 -45 3 4 1 16 -6 27 -7 14
-7 21 0 21 5 0 10 5 10 10 0 6 -7 10 -16 10 -8 0 -12 5 -9 10 4 7 12 7 25 0
25 -13 30 -13 30 5 0 8 5 15 11 15 5 0 7 -5 3 -11 -3 -6 -2 -14 3 -18 6 -3 13
-19 15 -36 3 -16 3 -24 1 -17 -3 6 -9 12 -14 12 -6 0 -7 5 -4 10 3 6 1 10 -5
10 -16 0 -8 -31 13 -52 18 -19 32 -24 22 -9 -3 5 -1 13 5 16 6 4 8 16 4 28 -4
12 -7 30 -6 39 0 9 -6 22 -14 29 -15 12 -20 34 -6 25 4 -3 9 11 9 30 1 19 10
52 22 74 12 22 21 51 21 65 0 13 4 35 9 48 16 40 136 191 186 231 25 21 52 50
60 65 8 16 36 43 63 60 46 29 50 36 66 99 30 113 36 130 53 136 9 4 20 1 24
-6 10 -16 39 7 39 31 0 9 11 32 23 51 13 19 27 54 31 77 6 42 6 43 -35 63 -40
21 -49 47 -13 42 10 -1 39 -4 63 -7 25 -3 53 -13 63 -22 18 -16 21 -16 49 1
17 10 33 15 36 12 8 -8 44 14 38 23 -2 5 7 9 21 9 15 0 30 5 34 11 5 9 10 8
20 -4 11 -13 10 -14 -6 -8 -17 6 -17 5 -5 -10 8 -11 18 -14 25 -9 6 5 22 6 36
2 22 -5 23 -7 7 -13 -11 -4 -23 -5 -28 -1 -5 3 -9 1 -9 -5 0 -22 20 -19 47 7
29 29 53 32 53 6 0 -17 43 -14 79 5 21 12 26 11 37 -4 7 -9 17 -14 23 -11 13
8 26 -38 16 -55 -5 -7 -3 -10 6 -7 8 3 19 -5 24 -16 12 -23 36 -28 43 -8 2 7
-2 10 -12 6 -9 -3 -16 -1 -16 4 0 21 18 21 35 2 11 -13 14 -20 6 -20 -18 0 -3
-20 23 -30 20 -8 20 -9 -4 -10 -19 0 -22 -2 -10 -10 12 -7 12 -11 -3 -28 -16
-17 -16 -20 -2 -25 8 -4 15 -11 15 -17 0 -6 -7 -5 -20 2 -11 7 -20 17 -20 21
0 5 -7 15 -15 23 -8 9 -15 11 -15 5 0 -5 5 -13 10 -16 6 -4 8 -11 4 -16 -3 -5
-9 -7 -14 -4 -4 3 -11 -2 -14 -11 -4 -11 1 -18 14 -21 11 -3 20 -10 20 -16 0
-6 3 -7 6 -4 4 4 1 14 -6 22 -11 14 -10 14 14 6 16 -7 35 -7 50 -1 17 6 26 5
29 -3 2 -7 8 -9 12 -5 4 4 2 15 -6 24 -13 16 -12 16 7 4 27 -17 62 -6 45 14
-9 10 -8 15 2 19 19 7 43 -8 28 -18 -8 -4 -9 -11 -2 -19 5 -6 8 -25 6 -41 -1
-17 2 -36 7 -43 8 -9 7 -11 -6 -6 -9 3 -16 1 -16 -6 0 -6 -5 -8 -10 -5 -6 4
-7 12 -3 18 11 18 14 47 4 47 -10 0 -21 -65 -16 -102 2 -18 -1 -28 -9 -28 -8
0 -12 -15 -12 -44 1 -24 -2 -42 -6 -39 -14 8 -8 -10 8 -28 9 -10 22 -15 30
-12 12 4 14 0 8 -22 -4 -17 -3 -26 3 -22 12 8 48 -53 36 -62 -5 -3 -10 -17
-10 -30 -1 -13 -8 -28 -15 -33 -9 -5 -7 -7 7 -5 11 1 31 10 45 20 31 22 44 22
35 0 -4 -10 -8 -25 -9 -33 -1 -8 -8 -25 -14 -37 -8 -14 -9 -24 -2 -28 6 -3 10
4 10 17 1 20 2 21 11 5 5 -9 8 -21 5 -26 -3 -5 2 -12 11 -15 15 -6 15 -9 3
-16 -10 -6 -18 -3 -27 10 -7 10 -27 21 -43 25 -35 8 -43 41 -9 41 19 0 19 -1
3 -13 -15 -11 -16 -13 -2 -13 9 0 19 7 22 16 9 23 8 27 -9 20 -8 -3 -15 -1
-15 5 0 6 -5 7 -10 4 -6 -4 -17 -1 -25 5 -12 10 -15 10 -15 0 0 -8 -3 -10 -6
-7 -4 4 -1 13 6 22 11 13 9 15 -14 15 -14 0 -26 -5 -26 -11 0 -5 4 -8 8 -5 17
10 5 -35 -13 -47 -13 -10 -16 -21 -12 -39 4 -15 1 -32 -8 -44 -13 -17 -14 -17
-15 -1 0 9 4 17 10 17 5 0 7 7 4 15 -4 8 -11 12 -16 9 -6 -4 -14 0 -19 7 -13
21 -12 -7 1 -32 7 -12 7 -19 1 -19 -6 0 -15 9 -21 20 -6 11 -15 20 -19 20 -5
0 -7 -9 -4 -20 3 -11 10 -20 15 -20 6 0 8 -6 5 -14 -3 -8 1 -20 8 -26 12 -10
16 -9 21 4 3 9 11 16 17 16 7 0 7 -4 -1 -12 -17 -17 -15 -31 4 -24 8 3 12 2 9
-4 -3 -6 0 -13 9 -16 8 -3 12 -12 9 -21 -5 -14 -8 -13 -20 3 -14 19 -15 19
-29 -1 -9 -11 -20 -19 -26 -17 -8 2 -8 -1 0 -11 7 -8 8 -18 4 -23 -4 -4 1 -2
11 5 9 7 17 21 18 30 0 12 2 11 9 -4 5 -13 3 -24 -6 -31 -15 -12 -20 -29 -5
-20 5 3 12 -1 15 -10 5 -12 1 -14 -17 -10 -14 4 -10 0 10 -10 32 -17 52 -54
29 -54 -7 0 -13 -7 -13 -15 0 -13 3 -13 18 1 10 9 16 21 13 25 -3 5 0 17 5 26
6 11 11 13 11 5 0 -7 4 -10 10 -7 5 3 8 19 6 34 -2 16 3 39 10 52 l13 24 1
-22 c0 -13 -4 -23 -9 -23 -10 0 -7 -43 5 -61 4 -7 3 -10 -3 -6 -6 4 -13 -4
-15 -17 -4 -17 -1 -23 9 -19 7 3 13 9 13 14 0 18 17 9 30 -16 7 -14 18 -25 23
-25 6 0 3 8 -6 18 -21 23 -21 32 -2 32 8 0 15 7 15 15 0 8 6 12 14 9 10 -4 14
1 13 15 -1 12 -7 21 -14 21 -7 0 -13 9 -13 20 0 23 15 27 24 5 3 -8 11 -15 18
-15 9 0 9 3 -2 11 -13 9 -13 10 0 6 8 -2 14 -10 12 -16 -1 -7 4 -21 12 -32 7
-11 12 -29 9 -40 -3 -10 0 -26 7 -34 11 -13 10 -14 -4 -9 -16 6 -20 16 -17 42
2 15 -35 16 -45 1 -3 -6 -1 -16 5 -22 8 -8 11 -6 11 8 0 11 14 -7 31 -40 17
-32 28 -66 26 -75 -2 -10 5 -22 17 -30 17 -10 19 -10 9 1 -7 7 -13 24 -13 38
0 13 -7 33 -17 43 -9 10 -11 18 -5 18 6 0 14 -4 17 -10 3 -5 11 -10 16 -10 6
0 7 4 4 10 -3 6 1 7 10 4 13 -5 13 -9 3 -22 -10 -12 -10 -14 0 -8 6 4 12 3 12
-2 0 -11 36 -54 44 -53 18 2 19 -1 4 -13 -16 -12 -15 -15 13 -35 22 -16 34
-20 40 -12 5 6 6 9 3 6 -11 -8 -45 16 -41 28 2 7 12 12 23 12 12 0 20 8 22 23
2 12 8 22 13 22 6 0 8 10 4 23 -6 21 -6 21 9 3 16 -19 16 -19 16 2 0 12 -9 30
-20 39 -11 10 -20 22 -20 27 0 5 8 2 18 -7 10 -10 22 -14 26 -10 4 5 14 -1 22
-11 8 -11 14 -16 14 -10 0 5 12 10 27 11 14 0 21 -2 14 -6 -15 -10 -3 -41 15
-41 8 0 14 -7 14 -15 0 -8 -4 -15 -10 -15 -5 0 -10 -5 -10 -11 0 -7 9 -9 23
-6 l22 6 -23 -19 c-12 -10 -21 -22 -20 -27 3 -8 -5 -13 -23 -13 -6 0 -3 7 5
16 18 17 21 34 7 34 -5 0 -13 -9 -16 -20 -4 -11 -11 -18 -16 -14 -5 3 -7 10
-4 15 10 15 -1 10 -15 -7 -8 -8 -9 -14 -3 -12 6 2 22 -9 36 -24 21 -23 23 -29
11 -39 -8 -6 -14 -21 -14 -32 0 -20 -1 -20 -13 -2 -16 20 -37 13 -37 -13 0 -9
-9 -32 -20 -50 -21 -34 -19 -52 5 -52 9 0 12 -6 9 -15 -4 -8 -12 -15 -20 -15
-9 0 -11 6 -7 18 6 14 4 15 -8 5 -9 -7 -20 -8 -29 -3 -9 6 -18 0 -29 -20 -25
-44 -70 -92 -82 -88 -8 3 -5 10 6 21 22 22 14 43 -19 49 -23 5 -27 1 -36 -34
-6 -21 -8 -43 -5 -48 3 -5 0 -12 -6 -16 -8 -4 -9 -3 -5 4 4 7 1 12 -8 12 -9 0
-13 -6 -10 -14 3 -8 1 -17 -5 -21 -6 -3 -11 -24 -11 -46 0 -24 -4 -38 -10 -34
-6 4 -7 -1 -3 -11 3 -9 6 -30 7 -48 1 -22 5 -30 16 -29 22 4 20 -44 -5 -95
-30 -63 -49 -52 -53 30 -2 54 -6 68 -21 73 -10 3 -38 24 -62 47 -39 37 -49 42
-89 41 -39 -2 -50 3 -92 42 -25 25 -43 47 -37 50 5 4 9 2 9 -4 0 -6 7 -8 15
-5 23 9 8 23 -24 22 -23 -1 -27 -4 -23 -24 2 -13 -3 -30 -11 -38 -13 -13 -17
-13 -32 4 -10 11 -23 20 -29 20 -6 0 -17 9 -24 20 -9 15 -23 20 -60 20 -42 1
-45 2 -29 14 16 12 16 14 2 20 -21 8 -74 -19 -105 -54 -25 -28 -80 -54 -66
-31 4 6 5 11 2 11 -3 0 -12 -12 -20 -27 -8 -16 -29 -44 -48 -63 -18 -19 -39
-46 -46 -60 -7 -14 -19 -36 -27 -49 -13 -23 -11 -26 36 -63 27 -22 49 -44 49
-49 0 -20 -37 -7 -61 22 l-26 32 13 -110 c13 -115 34 -183 56 -183 7 -1 52 -3
99 -5 l86 -4 29 32 c16 17 19 23 7 13 -16 -13 -30 -16 -55 -11 -18 4 -36 12
-40 18 -4 8 -13 5 -26 -7 -19 -17 -21 -16 -36 5 -12 18 -13 25 -3 31 8 5 7 8
-5 8 -22 0 -22 3 -17 97 1 13 5 20 10 17 5 -3 6 1 3 9 -3 8 2 17 11 21 10 4
30 -8 58 -34 22 -22 47 -40 54 -40 17 0 17 -17 1 -23 -8 -3 -6 -6 5 -6 12 -1
17 7 17 27 0 15 4 22 8 16 4 -6 16 -16 27 -23 19 -11 19 -12 -2 -6 -14 4 -23
2 -23 -4 0 -6 7 -11 15 -11 8 0 15 -6 15 -13 0 -9 11 -12 36 -9 30 4 138 -14
152 -24 2 -1 -5 -11 -17 -23 -11 -11 -21 -15 -23 -10 -2 5 -13 2 -26 -6 -23
-17 -29 -49 -11 -60 13 -9 -19 -34 -43 -35 -14 0 -18 -10 -20 -47 0 -27 -1
-57 -2 -68 0 -12 17 -33 48 -56 45 -34 50 -36 75 -23 52 28 120 12 158 -36 14
-18 17 -66 4 -74 -5 -3 -19 -31 -31 -62 -19 -45 -21 -57 -10 -64 10 -6 11 -12
3 -22 -5 -7 -17 -34 -26 -61 -9 -26 -25 -59 -36 -74 -12 -14 -21 -36 -21 -48
0 -26 -27 -53 -66 -65 -26 -7 -24 -8 21 -10 28 -1 42 -4 33 -7 -10 -2 -18 -8
-18 -13 0 -5 7 -7 16 -3 15 6 16 -2 11 -68 -19 -228 -30 -324 -38 -327 -5 -2
-9 -11 -9 -21 0 -9 -5 -22 -10 -27 -11 -11 -14 -21 -31 -109 -13 -69 -13 -71
-26 -86 -6 -8 -11 -45 -11 -84 -1 -71 -11 -118 -55 -260 -14 -44 -39 -125 -57
-180 -34 -112 -51 -235 -31 -235 7 0 9 -5 5 -11 -4 -8 1 -9 17 -4 20 7 22 5
13 -6 -7 -8 -11 -36 -10 -64 2 -27 -1 -55 -6 -61 -5 -7 -8 -16 -6 -20 1 -5 -3
-18 -9 -29 -6 -11 -12 -24 -13 -30 -1 -5 -11 -15 -23 -22 -12 -7 -17 -13 -12
-13 6 0 4 -4 -4 -9 -8 -5 -16 -29 -17 -53 -2 -24 -4 -43 -4 -43 -8 0 -8 -60 0
-70 7 -8 7 -14 1 -17 -6 -1 -12 -19 -15 -38 -2 -19 -9 -49 -14 -65 -5 -17 -13
-84 -17 -150 -4 -66 -9 -140 -12 -165 -9 -102 -8 -142 4 -152 7 -6 10 -15 7
-20 -4 -6 0 -14 7 -19 11 -7 9 -9 -6 -9 -17 -1 -16 -3 5 -12 l25 -10 -22 -11
c-23 -10 -31 -27 -13 -27 12 0 8 -83 -5 -92 -6 -5 -5 -11 5 -17 8 -6 19 -6 25
-1 7 6 11 -2 12 -26 0 -27 -3 -34 -18 -34 -12 0 -16 5 -13 15 5 11 2 13 -9 9
-12 -4 -14 -11 -7 -29 5 -13 6 -26 3 -29 -4 -3 1 -6 10 -6 9 0 17 6 17 13 0 9
2 9 8 -1 7 -10 123 -12 547 -10 l540 3 23 110 c13 61 32 151 43 201 l21 91 66
16 c37 9 69 13 73 9 10 -13 94 -325 104 -390 l7 -42 366 1 c304 1 362 3 338
14 -20 8 -25 14 -15 18 8 3 4 6 -10 6 -20 1 -22 4 -13 13 16 16 15 31 -1 25
-9 -3 -13 6 -13 34 0 23 -8 46 -19 59 -16 18 -17 23 -5 30 12 7 10 14 -10 35
-16 17 -19 24 -8 20 22 -9 31 10 13 29 -9 9 -11 17 -5 21 5 3 10 11 10 17 0 7
-5 7 -14 -1 -11 -9 -14 -9 -13 1 0 7 -1 30 -1 52 -2 35 -4 38 -27 33 -17 -3
-24 0 -20 7 3 6 8 19 11 29 4 9 11 17 16 17 6 0 5 7 -2 15 -7 9 -18 14 -24 12
-10 -4 -12 20 -7 64 0 6 12 9 26 7 13 -3 22 -1 19 3 -3 5 -9 9 -14 9 -14 0
-50 33 -50 45 0 5 4 3 10 -5 7 -12 12 -11 32 5 13 11 17 13 11 5 -17 -19 -16
-30 2 -30 8 0 15 -4 15 -10 0 -5 10 -8 23 -6 12 3 24 5 26 5 3 1 -4 7 -15 15
-33 24 -8 29 40 7 48 -21 64 -37 20 -21 -31 12 -34 12 -34 1 0 -5 9 -13 21
-16 11 -4 35 -21 53 -38 23 -23 40 -31 59 -29 32 4 34 -7 6 -36 -18 -20 -19
-49 0 -38 9 6 37 -11 30 -18 -2 -3 -20 -1 -40 3 -24 6 -38 4 -47 -5 -19 -20
-14 -24 14 -14 32 13 37 12 29 -1 -4 -6 1 -17 11 -25 18 -14 17 -14 -4 -4 -13
7 -26 9 -29 6 -9 -9 21 -31 41 -31 11 0 21 -6 24 -14 3 -10 -2 -12 -24 -8
l-28 5 25 -19 c22 -17 23 -19 4 -19 l-20 -1 20 -9 c11 -5 14 -9 6 -9 -11 -1
-11 -4 -1 -16 7 -9 9 -19 5 -23 -4 -4 -10 -1 -12 6 -3 6 -9 12 -15 12 -6 0 -3
-10 8 -22 17 -19 17 -21 2 -15 -17 6 -24 -3 -12 -16 10 -10 34 4 34 20 0 8 7
13 18 11 10 -2 16 -11 14 -21 -2 -11 4 -17 15 -17 17 -1 17 -1 1 -11 -10 -5
-18 -17 -18 -24 0 -8 -7 -15 -16 -15 -8 0 -13 -4 -9 -10 3 -5 12 -7 20 -3 11
3 13 1 9 -10 -3 -8 -14 -17 -25 -20 -19 -5 -27 -27 -10 -27 5 0 14 -14 21 -30
l12 -30 594 0 c327 0 594 3 594 6 0 10 -143 309 -242 507 -48 98 -99 206 -112
241 -13 34 -42 101 -65 149 -23 47 -41 89 -41 94 0 4 -7 21 -15 37 -9 16 -13
37 -10 46 3 10 2 28 -3 41 -6 15 -4 46 4 84 7 33 13 72 13 88 1 15 6 27 12 27
6 0 9 17 8 42 -3 36 0 43 14 40 9 -2 17 2 17 8 0 5 -4 10 -10 10 -15 0 -7 43
12 61 10 9 15 18 13 21 -3 3 1 11 10 18 8 7 15 18 15 25 0 8 15 22 33 34 17
11 38 29 45 41 8 13 19 19 28 16 9 -3 17 1 20 12 3 9 20 49 38 87 19 39 40 87
47 108 14 40 26 43 43 11 6 -10 15 -22 19 -25 5 -3 8 -9 8 -13 -1 -3 1 -6 3
-7 3 0 26 -21 53 -47 64 -62 90 -82 107 -82 8 0 21 -6 28 -12 7 -7 25 -19 40
-27 74 -38 143 -126 281 -356 7 -11 15 -22 18 -25 46 -38 458 -786 611 -1107
68 -145 74 -153 101 -153 l29 0 -20 33 c-11 17 -23 43 -27 57 -4 14 -20 41
-35 60 -42 55 -147 253 -165 310 -4 14 -18 45 -30 70 -13 25 -46 92 -74 150
-27 58 -61 124 -75 146 -36 61 -140 263 -156 304 -8 19 -16 37 -20 40 -3 3
-16 32 -28 65 -13 33 -30 71 -37 85 -12 23 -25 74 -44 180 -5 25 -6 76 -4 114
5 61 4 68 -11 63 -21 -8 -20 -5 5 24 16 19 19 32 15 63 -6 34 -5 37 9 26 8 -7
12 -16 9 -21 -3 -5 2 -9 10 -9 9 0 16 6 16 13 0 7 3 8 8 2 4 -5 22 -11 40 -13
73 -5 97 -32 106 -117 4 -30 48 -125 59 -125 10 0 46 -41 47 -52 0 -4 29 -38
65 -75 123 -128 145 -154 145 -167 0 -7 9 -21 21 -32 12 -10 29 -35 40 -54 22
-43 85 -110 104 -110 7 0 16 -11 19 -24 6 -23 41 -71 107 -144 16 -18 29 -37
29 -42 0 -5 9 -12 20 -15 12 -4 23 -18 26 -34 4 -17 16 -31 35 -40 15 -7 28
-16 28 -19 -1 -4 2 -18 6 -30 6 -18 10 -20 16 -10 7 10 9 9 9 -4 0 -10 7 -18
15 -18 8 0 16 -7 16 -15 1 -8 2 -19 3 -24 0 -5 12 -24 26 -42 14 -17 34 -48
45 -68 13 -23 27 -35 38 -33 11 2 17 -4 17 -18 0 -11 7 -20 15 -20 8 0 15 -7
15 -15 0 -8 5 -15 10 -15 6 0 10 -8 10 -17 1 -10 15 -27 33 -38 19 -12 35 -33
42 -55 6 -19 16 -45 23 -57 6 -12 12 -28 12 -36 0 -18 32 -47 53 -47 9 0 16
-3 15 -7 -5 -18 16 -57 41 -79 22 -19 24 -25 12 -36 -8 -7 -11 -8 -7 -1 3 6 2
14 -3 17 -14 9 -21 -8 -11 -24 7 -12 46 -16 195 -18 l187 -3 -7 23 c-4 13 -12
28 -18 33 -7 7 -8 6 -3 -3 4 -6 2 -12 -3 -12 -6 0 -12 5 -12 10 -1 6 -2 16 -3
23 -1 6 -7 11 -14 10 -6 -2 -9 3 -6 11 3 8 1 17 -5 21 -6 3 -11 -1 -11 -9 0
-23 -27 -20 -33 4 -3 11 -1 20 4 20 22 0 5 34 -38 80 -27 27 -56 61 -66 75
-19 27 -47 34 -47 11 0 -8 -7 -16 -15 -20 -21 -8 -19 4 7 31 12 13 18 26 14
30 -4 4 -11 2 -15 -5 -8 -13 -41 -6 -41 9 0 13 18 11 23 -3 3 -7 6 -3 6 10 1
12 -6 25 -14 28 -8 4 -15 12 -15 20 0 8 -5 14 -11 14 -5 0 -7 -5 -3 -12 5 -8
0 -9 -16 -5 -13 3 -31 1 -39 -5 -13 -10 -14 -10 -4 1 6 7 9 20 6 29 -5 12 -1
14 15 10 25 -7 27 -1 8 24 -8 12 -16 14 -24 8 -7 -6 -10 -7 -8 -4 9 13 -17 65
-30 60 -8 -3 -11 0 -8 8 3 7 -2 16 -10 19 -9 4 -16 11 -16 18 0 23 -226 269
-247 269 -14 0 -22 14 -27 47 -2 10 -10 17 -18 17 -9 -1 -15 6 -14 15 1 17 -5
18 -42 6 -21 -6 -23 -4 -17 14 5 16 2 21 -12 21 -15 0 -16 -2 -3 -10 17 -11 1
-13 -25 -4 -12 5 -13 9 -4 14 6 5 9 16 5 25 -5 13 -9 15 -19 6 -14 -11 -67 6
-67 22 0 4 -7 7 -15 7 -20 0 -19 17 3 29 14 9 13 10 -8 8 -37 -3 -90 20 -90
37 0 9 9 16 20 16 11 0 20 7 20 15 0 17 -16 20 -25 5 -10 -15 -35 -12 -35 5 0
8 -6 15 -14 15 -8 0 -17 8 -21 18 -3 9 -28 27 -55 40 -28 13 -50 28 -50 34 0
6 -24 36 -52 67 -29 31 -69 79 -88 106 -19 26 -48 63 -65 80 -43 46 -85 129
-107 209 -10 38 -25 80 -33 92 -8 13 -15 31 -15 41 0 10 -12 27 -26 38 -14 11
-36 29 -49 41 -13 12 -30 24 -39 27 -9 4 -16 14 -16 23 0 9 -6 14 -13 11 -14
-5 -32 12 -32 33 0 9 -10 14 -30 15 -26 0 -32 5 -43 40 -7 22 -15 47 -19 55
-4 8 -7 20 -8 25 -2 20 -24 50 -31 42 -5 -4 -10 -20 -12 -35 -5 -42 -17 -47
-60 -28 -26 12 -43 28 -54 54 -9 20 -27 49 -42 63 -15 16 -28 41 -31 64 -5 39
-10 49 -26 51 -5 1 -12 2 -16 3 -5 1 -16 19 -27 40 -22 46 -16 75 13 66 21 -6
33 7 37 42 2 16 -3 23 -14 23 -15 0 -15 2 -2 10 8 5 11 10 6 10 -5 0 -4 6 1
13 5 6 9 35 9 64 -1 40 2 49 12 41 20 -17 15 21 -13 98 -31 86 -32 104 -5 79
25 -23 25 -13 1 57 -29 85 -63 138 -87 138 -34 0 -51 30 -74 130 -12 52 -28
121 -36 153 -21 86 -30 182 -16 173 7 -4 12 -13 12 -21 0 -13 118 -377 125
-383 2 -2 1 63 -1 145 -12 394 -67 685 -181 956 -36 86 -49 107 -65 107 -18 0
-19 4 -14 35 8 43 -22 105 -129 265 -265 394 -601 736 -890 904 -48 27 -92 46
-110 46 -18 0 -56 15 -91 36 -222 136 -471 232 -721 279 -169 32 -624 62 -738
49z m245 -943 c-8 -6 -18 -7 -23 -4 -6 3 1 -9 14 -26 22 -29 25 -31 36 -15 7
10 16 14 20 10 4 -4 -3 -15 -15 -25 -15 -11 -21 -23 -16 -34 3 -9 10 -14 16
-11 5 3 4 13 -4 22 -12 15 -11 16 5 3 16 -13 20 -13 27 0 7 10 9 8 7 -9 -1
-12 -8 -22 -17 -22 -13 0 -13 -1 0 -10 21 -14 30 -12 30 4 0 8 5 18 12 22 7 4
8 3 4 -5 -4 -6 -2 -18 4 -26 7 -8 9 -15 5 -15 -4 0 -2 -7 5 -15 7 -9 10 -18 7
-22 -4 -3 -15 5 -26 18 -11 13 -20 20 -21 16 0 -13 33 -61 53 -76 13 -9 15
-17 8 -24 -11 -11 -61 16 -61 32 0 17 -64 81 -81 81 -9 0 -30 7 -45 15 -16 8
-48 15 -72 15 -24 0 -41 4 -37 9 3 6 27 8 54 7 45 -3 48 -2 43 20 -3 15 1 26
11 30 9 3 13 13 10 25 -5 16 0 19 28 19 25 0 30 -3 19 -9z m-816 -1042 c-3 -5
0 -9 6 -9 6 0 18 -7 26 -15 14 -13 14 -15 0 -15 -12 0 -14 -5 -7 -22 5 -13 7
-34 4 -47 -3 -20 -1 -22 12 -11 8 7 15 18 14 24 -1 6 -1 19 0 29 1 16 3 17 16
3 8 -8 19 -26 25 -41 5 -14 15 -23 20 -20 17 11 40 -3 34 -20 -3 -8 -10 -15
-15 -15 -4 0 -6 7 -3 15 4 8 1 15 -5 15 -6 0 -11 -7 -11 -16 0 -28 -27 3 -34
39 l-7 32 -13 -25 c-12 -23 -11 -27 10 -43 13 -10 24 -25 24 -33 0 -8 7 -14
16 -12 10 2 19 -3 21 -9 3 -7 -3 -13 -12 -13 -22 0 -55 18 -55 31 0 6 6 7 13
3 9 -5 9 -4 1 5 -17 18 -54 23 -47 5 10 -26 -24 -15 -57 19 -27 27 -31 37 -26
67 3 21 2 30 -3 21 -11 -17 -32 -5 -25 14 4 10 18 12 51 9 40 -4 44 -3 33 11
-7 8 -15 13 -19 11 -4 -3 -8 7 -9 21 -2 21 0 24 13 13 8 -7 12 -16 9 -21z
m1675 -220 c17 -6 31 -14 32 -17 6 -47 8 -62 14 -94 6 -30 4 -39 -9 -44 -9 -3
-14 -10 -11 -14 3 -5 -4 -15 -16 -24 -25 -17 -37 -68 -14 -59 10 3 13 -1 10
-15 -2 -12 6 -31 20 -46 13 -14 23 -26 22 -27 -16 -9 -70 -4 -74 7 -3 8 -9 12
-13 9 -5 -3 -19 17 -32 45 -13 28 -28 48 -35 46 -14 -6 -18 5 -38 91 -14 61
-14 68 3 97 30 52 78 67 141 45z m-1077 -79 c46 -7 99 -21 118 -31 19 -10 56
-26 82 -35 26 -9 45 -20 42 -25 -3 -5 1 -6 9 -3 17 6 76 -41 87 -70 7 -19 9
-18 23 14 26 60 61 90 106 90 38 0 40 -2 74 -63 46 -83 54 -123 32 -147 -12
-14 -16 -29 -11 -52 8 -43 -6 -67 -28 -48 -14 11 -16 10 -10 -4 4 -10 1 -16
-9 -16 -9 0 -19 9 -22 20 -9 28 -54 80 -70 80 -7 0 -15 7 -19 15 -7 19 4 19
32 -1 37 -26 35 -11 -3 26 -29 28 -35 31 -35 15 0 -17 -1 -17 -20 0 -11 10
-20 23 -20 29 0 16 -38 38 -45 26 -12 -19 -47 -9 -87 24 -22 19 -55 42 -73 50
-18 9 -38 23 -45 31 -23 28 -83 47 -152 49 -36 1 -70 4 -73 8 -4 4 -4 19 -1
33 6 22 9 24 21 12 7 -8 51 -20 97 -27z m2492 -267 c3 -10 8 -40 12 -68 3 -27
21 -81 39 -120 18 -38 47 -101 63 -140 17 -38 41 -92 53 -120 14 -31 24 -72
25 -110 l1 -59 -18 23 c-11 13 -20 33 -20 45 -5 58 -19 116 -29 116 -5 0 -18
32 -30 70 -12 39 -26 70 -31 70 -5 0 -9 9 -9 20 0 22 -44 115 -59 124 -5 3
-14 28 -21 56 l-12 49 -21 -20 c-20 -19 -22 -19 -29 -2 -11 29 -10 31 22 38
16 4 32 15 35 26 8 24 22 25 29 2z m261 -104 c7 -24 28 -82 47 -129 40 -93 85
-240 97 -310 4 -25 14 -58 23 -75 17 -34 31 -85 23 -85 -3 0 -10 10 -15 23 -6
12 -19 36 -30 52 -29 44 -67 126 -75 160 -15 65 -46 161 -59 180 -7 11 -16 51
-20 88 -3 37 -14 85 -25 107 l-19 40 21 -4 c16 -2 24 -14 32 -47z m-575 -126
c0 -17 -41 -74 -49 -68 -11 6 -25 -31 -17 -44 7 -11 -13 -71 -30 -92 -8 -8
-14 -22 -14 -31 0 -8 -11 -37 -25 -64 -14 -27 -29 -65 -33 -84 -6 -25 -13 -35
-27 -35 -17 0 -20 7 -21 51 -1 28 -4 56 -8 63 -4 6 -9 30 -11 54 -9 93 125
255 213 257 12 0 22 -3 22 -7z m-2000 -13 c8 -5 12 -12 8 -15 -3 -4 9 -30 28
-58 19 -28 34 -59 34 -68 0 -31 -22 -80 -42 -90 -20 -11 -18 -13 41 -55 2 -2
-4 -10 -13 -19 -18 -18 -31 -14 -47 17 -8 15 -8 19 0 14 6 -4 11 -3 11 3 0 5
-9 13 -20 16 -11 3 -20 10 -20 15 0 5 -10 10 -22 12 -14 2 -30 17 -42 41 -21
39 -43 51 -32 17 18 -60 17 -64 -5 -30 -50 76 -22 173 57 197 49 15 46 14 64
3z m-100 -280 c5 0 31 -39 57 -86 26 -48 56 -101 66 -118 18 -33 23 -76 8 -76
-5 0 -11 -9 -14 -20 -3 -11 -20 -27 -39 -34 -27 -12 -30 -16 -15 -21 9 -4 17
-13 17 -21 0 -8 7 -14 15 -14 8 0 15 -4 15 -10 0 -15 -16 -12 -31 6 -14 17
-101 64 -119 64 -23 0 -7 -40 30 -74 32 -29 41 -44 43 -73 2 -31 -2 -39 -23
-49 -40 -18 -106 -6 -126 23 -11 18 -12 23 -3 18 8 -4 3 2 -10 13 -39 31 -33
74 18 126 39 40 43 49 57 134 8 49 21 108 29 131 7 22 10 43 6 46 -5 2 -11 14
-14 26 -4 15 -2 19 10 15 8 -3 19 -6 23 -6z m-11 -724 c52 -81 59 -100 41
-111 -5 -3 -7 -12 -3 -20 4 -11 -2 -15 -23 -15 -25 -1 -27 -2 -11 -11 12 -7
15 -15 9 -22 -15 -19 -24 -67 -12 -67 9 0 -26 -79 -40 -90 -4 -3 -10 -30 -14
-60 -4 -30 -11 -59 -15 -65 -7 -8 -25 -84 -22 -92 1 -3 -35 -101 -52 -143 -6
-14 -11 -47 -12 -75 -3 -64 -15 -115 -27 -115 -6 0 -7 -7 -4 -16 9 -24 -24
-72 -77 -110 -26 -19 -52 -34 -57 -34 -10 0 -14 -15 -11 -34 1 -5 -5 -6 -14
-3 -8 4 -15 2 -15 -4 0 -6 -4 -8 -9 -4 -5 3 -13 0 -17 -6 -4 -8 -9 -7 -15 2
-8 12 -11 12 -18 0 -8 -12 -11 -8 -17 15 -4 16 -11 34 -16 41 -5 6 -10 37 -12
68 -2 32 -9 60 -15 64 -7 5 -9 16 -4 27 6 17 5 17 -10 5 -15 -12 -17 -11 -17
9 0 16 4 20 15 16 9 -3 15 0 15 9 0 8 -6 12 -14 9 -10 -4 -13 4 -11 29 2 19
-1 40 -6 48 -5 8 -9 10 -9 4 0 -11 -60 -16 -60 -5 0 4 9 18 19 32 11 13 23 36
26 51 4 14 18 38 31 52 12 14 21 25 18 25 -3 0 0 9 6 19 5 11 18 18 27 16 12
-2 43 23 87 68 79 83 126 173 155 300 17 74 83 310 97 347 3 10 14 0 33 -30
16 -25 52 -81 80 -124z m2101 21 c0 -23 -12 -69 -26 -102 -23 -53 -156 -427
-171 -480 -3 -11 -9 -24 -13 -30 -19 -25 -41 -128 -47 -216 -5 -83 4 -177 23
-250 2 -9 -2 -16 -9 -16 -8 0 -12 12 -12 33 1 18 -2 31 -6 28 -4 -2 -10 0 -13
5 -4 5 -1 13 4 16 7 5 5 12 -7 21 -11 8 -13 13 -5 14 14 0 17 30 3 30 -5 0 -8
11 -7 24 2 19 -1 23 -13 18 -13 -5 -14 -3 -4 10 7 8 10 17 7 20 -3 3 -7 23 -9
44 -3 22 -7 54 -9 73 -3 19 -2 39 2 45 9 15 10 27 0 54 -4 13 -4 21 0 18 5 -3
9 16 10 42 0 25 5 48 12 50 8 3 7 9 -2 20 -11 13 -11 14 1 8 10 -7 12 -3 6 13
-4 13 -2 21 6 21 8 0 9 10 5 30 -3 18 -2 29 4 25 5 -3 12 10 16 30 3 20 10 32
17 28 6 -4 8 2 4 17 -4 17 -3 20 6 11 17 -17 26 -13 21 12 -2 12 -2 16 2 10 6
-14 25 -18 23 -5 -4 27 2 44 16 38 8 -3 15 0 15 7 0 7 10 23 23 37 13 14 26
32 30 40 4 8 19 35 33 60 15 27 30 75 37 122 12 81 27 96 27 25z m-1344 -988
c8 -7 13 -20 12 -29 -2 -9 3 -24 10 -32 22 -27 -10 -42 -143 -70 -44 -9 -57
-8 -102 12 -28 12 -54 29 -58 38 -9 25 28 54 102 79 72 25 151 25 179 2z
m-1178 -276 c-15 -58 -94 -231 -109 -243 -4 -3 -14 -27 -23 -54 -9 -26 -21
-57 -27 -68 -6 -11 -12 -32 -14 -46 -4 -32 -42 -119 -55 -127 -29 -18 -11 69
19 92 12 10 13 15 4 21 -9 6 -10 17 -4 39 5 17 7 34 4 37 -17 16 41 205 67
221 6 4 8 11 5 16 -4 5 -2 9 3 9 5 0 12 10 16 23 4 16 8 19 15 9 7 -11 9 -11
14 2 3 8 2 18 -4 21 -5 4 -3 13 6 21 8 9 19 12 25 9 5 -3 10 1 10 9 0 9 6 16
14 16 7 0 19 7 26 15 18 22 19 19 8 -22z"/>
<path d="M2806 4434 c-17 -44 1 -307 24 -370 6 -14 10 -35 10 -47 0 -24 36
-62 45 -47 3 5 1 11 -5 15 -5 3 -10 11 -10 16 0 6 4 8 9 4 5 -3 13 0 17 6 3 6
1 15 -5 19 -7 4 -17 40 -22 79 -9 62 -8 76 5 90 20 22 20 31 1 31 -8 0 -15 5
-15 10 0 6 5 10 11 10 8 0 8 4 0 14 -9 11 -9 20 -2 35 6 11 11 28 10 38 -1 13
-3 11 -9 -7 -8 -24 -8 -23 -9 8 -1 19 3 31 9 27 12 -7 1 55 -13 73 -13 17 -44
15 -51 -4z"/>
<path d="M2796 3553 c-10 -21 -25 -53 -34 -70 -8 -18 -19 -33 -23 -33 -14 0
-169 -223 -169 -244 0 -5 -24 -48 -54 -95 -30 -47 -59 -106 -65 -131 -6 -25
-22 -92 -35 -150 -14 -58 -21 -109 -17 -113 5 -5 19 -3 31 5 19 12 24 11 37
-9 9 -13 19 -23 23 -23 18 0 77 109 84 155 10 64 29 121 65 193 39 76 97 171
122 201 40 45 99 144 109 182 14 53 7 100 -20 137 -13 18 -26 32 -30 32 -3 0
-14 -17 -24 -37z"/>
<path d="M3308 3307 c3 -28 -2 -38 -38 -71 -23 -21 -39 -40 -36 -43 3 -3 13 0
22 8 15 12 17 12 12 -1 -2 -8 -18 -22 -35 -30 -27 -14 -187 -183 -293 -311
-68 -82 -20 -40 130 113 153 157 174 168 227 124 35 -29 43 -32 43 -13 0 7 13
28 28 47 33 40 37 104 9 125 -9 7 -14 15 -10 19 4 4 1 4 -8 1 -10 -4 -18 4
-24 27 -14 43 -32 47 -27 5z"/>
<path d="M3650 3194 c0 -9 7 -23 16 -31 11 -11 14 -26 10 -47 -4 -22 -3 -27 4
-16 8 13 10 13 10 -1 0 -9 -6 -19 -13 -22 -20 -8 -41 9 -34 27 4 9 2 16 -3 16
-6 0 -10 6 -10 14 0 8 -7 17 -16 20 -11 4 -14 1 -9 -13 7 -24 -22 -51 -31 -28
-3 9 -12 18 -19 21 -10 4 -12 -3 -8 -28 3 -23 -3 -50 -20 -87 -36 -80 -37 -85
-23 -126 16 -47 -1 -128 -38 -182 -14 -20 -26 -42 -26 -49 0 -6 -7 -15 -17
-20 -14 -9 -14 -10 6 -17 l22 -7 -6 -196 c-6 -180 -15 -248 -37 -262 -4 -3 -9
-17 -10 -30 -2 -14 -7 -28 -12 -32 -5 -3 -10 -15 -12 -25 -1 -10 -5 -34 -9
-53 -4 -19 -9 -57 -11 -85 -3 -62 -25 -158 -38 -166 -5 -4 -6 -16 -3 -28 3
-12 1 -23 -3 -26 -5 -3 -9 -13 -9 -23 1 -9 -2 -47 -5 -84 -4 -42 -3 -68 3 -68
23 0 84 67 110 119 53 104 94 295 111 517 12 146 17 168 75 354 20 63 43 157
51 210 8 52 24 139 36 193 11 54 17 104 14 112 -3 8 -2 15 2 15 5 0 14 23 21
50 15 58 8 72 -40 89 -24 8 -29 7 -29 -5z"/>
<path d="M1925 3138 c12 -50 14 -241 3 -261 -7 -13 -4 -30 11 -60 11 -23 24
-81 29 -130 7 -65 16 -96 33 -122 13 -19 26 -35 29 -35 15 0 29 21 53 73 21
45 24 63 17 83 -5 13 -9 84 -8 157 1 161 -15 211 -94 282 -62 55 -84 59 -73
13z"/>
<path d="M3339 3028 c-2 -53 -7 -70 -30 -96 -13 -15 -31 -31 -39 -36 -37 -22
-231 -231 -280 -302 -29 -44 -60 -83 -68 -88 -32 -19 -92 -79 -92 -92 0 -16
-27 -78 -87 -197 -25 -49 -42 -91 -39 -94 2 -3 40 28 83 69 43 40 99 91 125
112 26 21 72 69 103 107 81 100 150 166 189 180 32 12 35 16 41 68 12 96 44
202 80 267 19 34 35 76 35 93 0 35 -20 43 -21 9z"/>
<path d="M3301 2535 c0 -5 -17 -27 -37 -47 -19 -21 -31 -38 -26 -38 5 0 15 7
22 15 7 9 15 14 17 11 9 -9 -20 -52 -68 -101 -27 -27 -97 -100 -157 -161 -59
-60 -124 -120 -144 -133 -25 -15 -38 -30 -38 -44 0 -12 -15 -41 -33 -64 -17
-23 -52 -71 -77 -108 -25 -36 -82 -105 -127 -153 -46 -48 -83 -91 -83 -96 0
-11 -70 -73 -127 -111 -72 -50 -179 -187 -234 -303 -40 -83 -126 -207 -169
-242 -3 -3 -60 -70 -127 -150 -66 -80 -136 -161 -154 -181 -30 -31 -159 -181
-214 -248 -11 -13 -38 -45 -60 -70 -22 -26 -58 -71 -80 -101 -22 -30 -47 -62
-56 -70 -9 -8 -37 -43 -62 -77 l-47 -63 675 0 674 0 42 72 c22 40 61 104 86
142 l45 69 -16 116 c-16 113 -31 512 -31 811 0 130 3 152 25 213 14 38 42 88
62 113 20 25 46 70 58 100 35 95 73 154 99 154 33 0 41 -28 37 -124 -3 -55 0
-98 5 -102 13 -7 94 81 115 125 25 52 63 276 64 371 0 76 4 94 36 165 86 190
115 267 111 293 -2 15 -5 23 -6 17z"/>
</g>
</svg>
